<svg id="Layer_1" data-name="Layer 1" xmlns="http://www.w3.org/2000/svg" viewBox="0 0 182.42 101.31"><defs><style>.cls-1{fill:#694a86;}.cls-2{fill:#d1d3d4;}</style></defs><title>pMaps Logos and icons</title><path class="cls-1" d="M39.68,27.75h0a10.71,10.71,0,0,0-3,21.2h0a10.71,10.71,0,0,0,3-21.2Z"/><path class="cls-1" d="M75.95,38.53a37.29,37.29,0,0,0-11.53-27A37.41,37.41,0,0,0,7.58,60h0l30.95,41.32,7.74-10.44L18.82,54.4A25.14,25.14,0,0,1,41.7,13.46h0A25.14,25.14,0,0,1,43.3,63L55.24,78.8,68.37,61.1h0A37.23,37.23,0,0,0,75.95,38.53Z"/><path class="cls-2" d="M38.18,50.35A12.18,12.18,0,1,1,50.35,38.17,12.19,12.19,0,0,1,38.18,50.35Zm0-21A8.82,8.82,0,1,0,47,38.17,8.83,8.83,0,0,0,38.18,29.35Z"/><path class="cls-1" d="M109.42,51a9.53,9.53,0,0,1-1.69,5.93,5.86,5.86,0,0,1-8.75.48V65h-3.6V42.81H98.7l.15,1.63a5.28,5.28,0,0,1,4.31-1.92,5.46,5.46,0,0,1,4.6,2.18,9.79,9.79,0,0,1,1.67,6.06Zm-3.58-.31a6.68,6.68,0,0,0-1-3.8,3.1,3.1,0,0,0-2.73-1.41A3.31,3.31,0,0,0,99,47.28v7.11a3.34,3.34,0,0,0,3.2,1.87,3.1,3.1,0,0,0,2.69-1.38A7.36,7.36,0,0,0,105.83,50.67Z"/><path class="cls-1" d="M114.72,37.27l8.87,20.38,8.9-20.38h1.17V58.82h-.8V38.46l-8.94,20.37h-.64l-8.9-20.26V58.82h-.8V37.27Z"/><path class="cls-1" d="M149.5,58.82a11.12,11.12,0,0,1-.3-2.93,6.42,6.42,0,0,1-2.59,2.38,8,8,0,0,1-3.71.84,5.17,5.17,0,0,1-3.58-1.21A4,4,0,0,1,138,54.77a4.06,4.06,0,0,1,2-3.53,9.57,9.57,0,0,1,5.29-1.35h4V47.54a3.93,3.93,0,0,0-1.27-3.12,5.32,5.32,0,0,0-3.62-1.11,5.83,5.83,0,0,0-3.66,1.13,3.39,3.39,0,0,0-1.47,2.78l-.8,0a4.1,4.1,0,0,1,1.72-3.32,6.55,6.55,0,0,1,4.2-1.36,6.15,6.15,0,0,1,4.12,1.3A4.65,4.65,0,0,1,150,47.46v7.65a10.27,10.27,0,0,0,.42,3.58v.13Zm-6.6-.5a7.19,7.19,0,0,0,3.87-1,6.23,6.23,0,0,0,2.44-2.83v-3.8h-3.7A8.66,8.66,0,0,0,140.25,52a3.34,3.34,0,0,0-1.48,2.77,3.18,3.18,0,0,0,1.17,2.49A4.34,4.34,0,0,0,142.9,58.32Z"/><path class="cls-1" d="M167.4,51a9.87,9.87,0,0,1-1.61,6,5.16,5.16,0,0,1-4.4,2.21,6.92,6.92,0,0,1-3.24-.74,5.55,5.55,0,0,1-2.22-2V65h-.8V42.81h.8v2.86a5.87,5.87,0,0,1,2.23-2.34,6.27,6.27,0,0,1,3.2-.81,5.23,5.23,0,0,1,4.43,2.15,9.91,9.91,0,0,1,1.61,6Zm-.81-.31a9.26,9.26,0,0,0-1.37-5.4,4.43,4.43,0,0,0-3.84-1.95,5.57,5.57,0,0,0-3.42,1,5.77,5.77,0,0,0-2,3v7.49a5.08,5.08,0,0,0,2,2.57,6.22,6.22,0,0,0,3.44.91,4.39,4.39,0,0,0,3.82-2A10,10,0,0,0,166.58,50.65Z"/><path class="cls-1" d="M181.62,54.9q0-2.92-5-4a9.77,9.77,0,0,1-4.16-1.64,3.42,3.42,0,0,1-1.17-2.75,3.5,3.5,0,0,1,1.49-2.9,6.19,6.19,0,0,1,3.87-1.14,6.54,6.54,0,0,1,4.16,1.24,4,4,0,0,1,1.57,3.34h-.81a3.31,3.31,0,0,0-1.36-2.69,5.55,5.55,0,0,0-3.55-1.08,5.44,5.44,0,0,0-3.33.92,3,3,0,0,0-.77,4,4,4,0,0,0,1.5,1.11,15.28,15.28,0,0,0,3,1,12.85,12.85,0,0,1,3.14,1.08,4.24,4.24,0,0,1,1.67,1.47,3.93,3.93,0,0,1,.52,2.08,3.62,3.62,0,0,1-1.55,3,6.66,6.66,0,0,1-4.07,1.15,7.13,7.13,0,0,1-4.34-1.22,3.75,3.75,0,0,1-1.65-3.15h.8a3.31,3.31,0,0,0,1.49,2.63,6.45,6.45,0,0,0,3.71.94,5.68,5.68,0,0,0,3.49-1A3,3,0,0,0,181.62,54.9Z"/></svg>